<?xml version="1.0" encoding="utf-8" standalone="no"?>
<!DOCTYPE svg PUBLIC "-//W3C//DTD SVG 1.1//EN"
  "http://www.w3.org/Graphics/SVG/1.1/DTD/svg11.dtd">
<svg xmlns:xlink="http://www.w3.org/1999/xlink" width="504pt" height="324pt" viewBox="0 0 504 324" xmlns="http://www.w3.org/2000/svg" version="1.1">
 <metadata>
  <rdf:RDF xmlns:dc="http://purl.org/dc/elements/1.1/" xmlns:cc="http://creativecommons.org/ns#" xmlns:rdf="http://www.w3.org/1999/02/22-rdf-syntax-ns#">
   <cc:Work>
    <dc:type rdf:resource="http://purl.org/dc/dcmitype/StillImage"/>
    <dc:date>2026-04-07T22:09:41.730651</dc:date>
    <dc:format>image/svg+xml</dc:format>
    <dc:creator>
     <cc:Agent>
      <dc:title>Matplotlib v3.10.8, https://matplotlib.org/</dc:title>
     </cc:Agent>
    </dc:creator>
   </cc:Work>
  </rdf:RDF>
 </metadata>
 <defs>
  <style type="text/css">*{stroke-linejoin: round; stroke-linecap: butt}</style>
 </defs>
 <g id="figure_1">
  <g id="patch_1">
   <path d="M 0 324 
L 504 324 
L 504 0 
L 0 0 
z
" style="fill: #ffffff"/>
  </g>
  <g id="axes_1">
   <g id="patch_2">
    <path d="M 60.231564 266.24103 
L 493.2 266.24103 
L 493.2 26.02875 
L 60.231564 26.02875 
z
" style="fill: #ffffff"/>
   </g>
   <g id="matplotlib.axis_1">
    <g id="xtick_1">
     <g id="line2d_1">
      <path d="M 79.911947 266.24103 
L 79.911947 26.02875 
" clip-path="url(#p7a43b2fab3)" style="fill: none; stroke: #b0b0b0; stroke-opacity: 0.2; stroke-width: 0.8; stroke-linecap: square"/>
     </g>
     <g id="line2d_2">
      <defs>
       <path id="m5bfe137b9d" d="M 0 0 
L 0 3.5 
" style="stroke: #000000; stroke-width: 0.8"/>
      </defs>
      <g>
       <use xlink:href="#m5bfe137b9d" x="79.911947" y="266.24103" style="stroke: #000000; stroke-width: 0.8"/>
      </g>
     </g>
     <g id="text_1">
      <!-- 10 -->
      <g transform="translate(69.443452 287.611871) rotate(-45) scale(0.1 -0.1)">
       <defs>
        <path id="DejaVuSerif-31" d="M 909 0 
L 909 331 
L 1722 331 
L 1722 4213 
L 781 3603 
L 781 4013 
L 1919 4750 
L 2350 4750 
L 2350 331 
L 3163 331 
L 3163 0 
L 909 0 
z
" transform="scale(0.015625)"/>
        <path id="DejaVuSerif-30" d="M 2034 219 
Q 2513 219 2750 744 
Q 2988 1269 2988 2328 
Q 2988 3391 2750 3916 
Q 2513 4441 2034 4441 
Q 1556 4441 1318 3916 
Q 1081 3391 1081 2328 
Q 1081 1269 1318 744 
Q 1556 219 2034 219 
z
M 2034 -91 
Q 1275 -91 848 546 
Q 422 1184 422 2328 
Q 422 3475 848 4112 
Q 1275 4750 2034 4750 
Q 2797 4750 3222 4112 
Q 3647 3475 3647 2328 
Q 3647 1184 3222 546 
Q 2797 -91 2034 -91 
z
" transform="scale(0.015625)"/>
       </defs>
       <use xlink:href="#DejaVuSerif-31"/>
       <use xlink:href="#DejaVuSerif-30" transform="translate(63.623047 0)"/>
      </g>
     </g>
    </g>
    <g id="xtick_2">
     <g id="line2d_3">
      <path d="M 139.155805 266.24103 
L 139.155805 26.02875 
" clip-path="url(#p7a43b2fab3)" style="fill: none; stroke: #b0b0b0; stroke-opacity: 0.2; stroke-width: 0.8; stroke-linecap: square"/>
     </g>
     <g id="line2d_4">
      <g>
       <use xlink:href="#m5bfe137b9d" x="139.155805" y="266.24103" style="stroke: #000000; stroke-width: 0.8"/>
      </g>
     </g>
     <g id="text_2">
      <!-- 20 -->
      <g transform="translate(128.68731 287.611871) rotate(-45) scale(0.1 -0.1)">
       <defs>
        <path id="DejaVuSerif-32" d="M 819 3553 
L 469 3553 
L 469 4384 
Q 803 4563 1142 4656 
Q 1481 4750 1806 4750 
Q 2534 4750 2956 4397 
Q 3378 4044 3378 3438 
Q 3378 2753 2422 1800 
Q 2347 1728 2309 1691 
L 1131 513 
L 3078 513 
L 3078 1088 
L 3444 1088 
L 3444 0 
L 434 0 
L 434 341 
L 1850 1753 
Q 2319 2222 2519 2614 
Q 2719 3006 2719 3438 
Q 2719 3909 2473 4175 
Q 2228 4441 1797 4441 
Q 1350 4441 1106 4219 
Q 863 3997 819 3553 
z
" transform="scale(0.015625)"/>
       </defs>
       <use xlink:href="#DejaVuSerif-32"/>
       <use xlink:href="#DejaVuSerif-30" transform="translate(63.623047 0)"/>
      </g>
     </g>
    </g>
    <g id="xtick_3">
     <g id="line2d_5">
      <path d="M 217.471924 266.24103 
L 217.471924 26.02875 
" clip-path="url(#p7a43b2fab3)" style="fill: none; stroke: #b0b0b0; stroke-opacity: 0.2; stroke-width: 0.8; stroke-linecap: square"/>
     </g>
     <g id="line2d_6">
      <g>
       <use xlink:href="#m5bfe137b9d" x="217.471924" y="266.24103" style="stroke: #000000; stroke-width: 0.8"/>
      </g>
     </g>
     <g id="text_3">
      <!-- 50 -->
      <g transform="translate(207.003429 287.611871) rotate(-45) scale(0.1 -0.1)">
       <defs>
        <path id="DejaVuSerif-35" d="M 3219 4666 
L 3219 4153 
L 1081 4153 
L 1081 2816 
Q 1244 2928 1461 2984 
Q 1678 3041 1947 3041 
Q 2703 3041 3140 2622 
Q 3578 2203 3578 1478 
Q 3578 738 3136 323 
Q 2694 -91 1894 -91 
Q 1572 -91 1234 -12 
Q 897 66 544 225 
L 544 1131 
L 897 1131 
Q 925 688 1179 453 
Q 1434 219 1894 219 
Q 2388 219 2653 544 
Q 2919 869 2919 1478 
Q 2919 2084 2655 2407 
Q 2391 2731 1894 2731 
Q 1613 2731 1398 2631 
Q 1184 2531 1019 2322 
L 750 2322 
L 750 4666 
L 3219 4666 
z
" transform="scale(0.015625)"/>
       </defs>
       <use xlink:href="#DejaVuSerif-35"/>
       <use xlink:href="#DejaVuSerif-30" transform="translate(63.623047 0)"/>
      </g>
     </g>
    </g>
    <g id="xtick_4">
     <g id="line2d_7">
      <path d="M 276.715782 266.24103 
L 276.715782 26.02875 
" clip-path="url(#p7a43b2fab3)" style="fill: none; stroke: #b0b0b0; stroke-opacity: 0.2; stroke-width: 0.8; stroke-linecap: square"/>
     </g>
     <g id="line2d_8">
      <g>
       <use xlink:href="#m5bfe137b9d" x="276.715782" y="266.24103" style="stroke: #000000; stroke-width: 0.8"/>
      </g>
     </g>
     <g id="text_4">
      <!-- 100 -->
      <g transform="translate(261.74832 292.110838) rotate(-45) scale(0.1 -0.1)">
       <use xlink:href="#DejaVuSerif-31"/>
       <use xlink:href="#DejaVuSerif-30" transform="translate(63.623047 0)"/>
       <use xlink:href="#DejaVuSerif-30" transform="translate(127.246094 0)"/>
      </g>
     </g>
    </g>
    <g id="xtick_5">
     <g id="line2d_9">
      <path d="M 335.959639 266.24103 
L 335.959639 26.02875 
" clip-path="url(#p7a43b2fab3)" style="fill: none; stroke: #b0b0b0; stroke-opacity: 0.2; stroke-width: 0.8; stroke-linecap: square"/>
     </g>
     <g id="line2d_10">
      <g>
       <use xlink:href="#m5bfe137b9d" x="335.959639" y="266.24103" style="stroke: #000000; stroke-width: 0.8"/>
      </g>
     </g>
     <g id="text_5">
      <!-- 200 -->
      <g transform="translate(320.992177 292.110838) rotate(-45) scale(0.1 -0.1)">
       <use xlink:href="#DejaVuSerif-32"/>
       <use xlink:href="#DejaVuSerif-30" transform="translate(63.623047 0)"/>
       <use xlink:href="#DejaVuSerif-30" transform="translate(127.246094 0)"/>
      </g>
     </g>
    </g>
    <g id="xtick_6">
     <g id="line2d_11">
      <path d="M 370.615074 266.24103 
L 370.615074 26.02875 
" clip-path="url(#p7a43b2fab3)" style="fill: none; stroke: #b0b0b0; stroke-opacity: 0.2; stroke-width: 0.8; stroke-linecap: square"/>
     </g>
     <g id="line2d_12">
      <g>
       <use xlink:href="#m5bfe137b9d" x="370.615074" y="266.24103" style="stroke: #000000; stroke-width: 0.8"/>
      </g>
     </g>
     <g id="text_6">
      <!-- 300 -->
      <g transform="translate(355.647613 292.110838) rotate(-45) scale(0.1 -0.1)">
       <defs>
        <path id="DejaVuSerif-33" d="M 622 4469 
Q 988 4606 1323 4678 
Q 1659 4750 1953 4750 
Q 2638 4750 3022 4454 
Q 3406 4159 3406 3634 
Q 3406 3213 3140 2930 
Q 2875 2647 2388 2547 
Q 2963 2466 3280 2130 
Q 3597 1794 3597 1259 
Q 3597 606 3158 257 
Q 2719 -91 1894 -91 
Q 1528 -91 1179 -12 
Q 831 66 488 225 
L 488 1131 
L 838 1131 
Q 869 681 1141 450 
Q 1413 219 1906 219 
Q 2384 219 2661 495 
Q 2938 772 2938 1253 
Q 2938 1803 2653 2086 
Q 2369 2369 1819 2369 
L 1522 2369 
L 1522 2688 
L 1678 2688 
Q 2225 2688 2498 2914 
Q 2772 3141 2772 3597 
Q 2772 4006 2547 4223 
Q 2322 4441 1900 4441 
Q 1478 4441 1245 4241 
Q 1013 4041 972 3647 
L 622 3647 
L 622 4469 
z
" transform="scale(0.015625)"/>
       </defs>
       <use xlink:href="#DejaVuSerif-33"/>
       <use xlink:href="#DejaVuSerif-30" transform="translate(63.623047 0)"/>
       <use xlink:href="#DejaVuSerif-30" transform="translate(127.246094 0)"/>
      </g>
     </g>
    </g>
    <g id="xtick_7">
     <g id="line2d_13">
      <path d="M 414.275759 266.24103 
L 414.275759 26.02875 
" clip-path="url(#p7a43b2fab3)" style="fill: none; stroke: #b0b0b0; stroke-opacity: 0.2; stroke-width: 0.8; stroke-linecap: square"/>
     </g>
     <g id="line2d_14">
      <g>
       <use xlink:href="#m5bfe137b9d" x="414.275759" y="266.24103" style="stroke: #000000; stroke-width: 0.8"/>
      </g>
     </g>
     <g id="text_7">
      <!-- 500 -->
      <g transform="translate(399.308297 292.110838) rotate(-45) scale(0.1 -0.1)">
       <use xlink:href="#DejaVuSerif-35"/>
       <use xlink:href="#DejaVuSerif-30" transform="translate(63.623047 0)"/>
       <use xlink:href="#DejaVuSerif-30" transform="translate(127.246094 0)"/>
      </g>
     </g>
    </g>
    <g id="xtick_8">
     <g id="line2d_15">
      <path d="M 448.931194 266.24103 
L 448.931194 26.02875 
" clip-path="url(#p7a43b2fab3)" style="fill: none; stroke: #b0b0b0; stroke-opacity: 0.2; stroke-width: 0.8; stroke-linecap: square"/>
     </g>
     <g id="line2d_16">
      <g>
       <use xlink:href="#m5bfe137b9d" x="448.931194" y="266.24103" style="stroke: #000000; stroke-width: 0.8"/>
      </g>
     </g>
     <g id="text_8">
      <!-- 750 -->
      <g transform="translate(433.963732 292.110838) rotate(-45) scale(0.1 -0.1)">
       <defs>
        <path id="DejaVuSerif-37" d="M 3609 4347 
L 1784 0 
L 1319 0 
L 3059 4153 
L 903 4153 
L 903 3578 
L 538 3578 
L 538 4666 
L 3609 4666 
L 3609 4347 
z
" transform="scale(0.015625)"/>
       </defs>
       <use xlink:href="#DejaVuSerif-37"/>
       <use xlink:href="#DejaVuSerif-35" transform="translate(63.623047 0)"/>
       <use xlink:href="#DejaVuSerif-30" transform="translate(127.246094 0)"/>
      </g>
     </g>
    </g>
    <g id="xtick_9">
     <g id="line2d_17">
      <path d="M 473.519617 266.24103 
L 473.519617 26.02875 
" clip-path="url(#p7a43b2fab3)" style="fill: none; stroke: #b0b0b0; stroke-opacity: 0.2; stroke-width: 0.8; stroke-linecap: square"/>
     </g>
     <g id="line2d_18">
      <g>
       <use xlink:href="#m5bfe137b9d" x="473.519617" y="266.24103" style="stroke: #000000; stroke-width: 0.8"/>
      </g>
     </g>
     <g id="text_9">
      <!-- 1000 -->
      <g transform="translate(454.053188 296.609805) rotate(-45) scale(0.1 -0.1)">
       <use xlink:href="#DejaVuSerif-31"/>
       <use xlink:href="#DejaVuSerif-30" transform="translate(63.623047 0)"/>
       <use xlink:href="#DejaVuSerif-30" transform="translate(127.246094 0)"/>
       <use xlink:href="#DejaVuSerif-30" transform="translate(190.869141 0)"/>
      </g>
     </g>
    </g>
    <g id="xtick_10">
     <g id="line2d_19">
      <defs>
       <path id="ma63ff860be" d="M 0 0 
L 0 2 
" style="stroke: #000000; stroke-width: 0.6"/>
      </defs>
      <g>
       <use xlink:href="#ma63ff860be" x="60.839685" y="266.24103" style="stroke: #000000; stroke-width: 0.6"/>
      </g>
     </g>
    </g>
    <g id="xtick_11">
     <g id="line2d_20">
      <g>
       <use xlink:href="#ma63ff860be" x="70.906697" y="266.24103" style="stroke: #000000; stroke-width: 0.6"/>
      </g>
     </g>
    </g>
    <g id="xtick_12">
     <g id="line2d_21">
      <g>
       <use xlink:href="#ma63ff860be" x="173.81124" y="266.24103" style="stroke: #000000; stroke-width: 0.6"/>
      </g>
     </g>
    </g>
    <g id="xtick_13">
     <g id="line2d_22">
      <g>
       <use xlink:href="#ma63ff860be" x="198.399662" y="266.24103" style="stroke: #000000; stroke-width: 0.6"/>
      </g>
     </g>
    </g>
    <g id="xtick_14">
     <g id="line2d_23">
      <g>
       <use xlink:href="#ma63ff860be" x="233.055097" y="266.24103" style="stroke: #000000; stroke-width: 0.6"/>
      </g>
     </g>
    </g>
    <g id="xtick_15">
     <g id="line2d_24">
      <g>
       <use xlink:href="#ma63ff860be" x="246.230482" y="266.24103" style="stroke: #000000; stroke-width: 0.6"/>
      </g>
     </g>
    </g>
    <g id="xtick_16">
     <g id="line2d_25">
      <g>
       <use xlink:href="#ma63ff860be" x="257.64352" y="266.24103" style="stroke: #000000; stroke-width: 0.6"/>
      </g>
     </g>
    </g>
    <g id="xtick_17">
     <g id="line2d_26">
      <g>
       <use xlink:href="#ma63ff860be" x="267.710532" y="266.24103" style="stroke: #000000; stroke-width: 0.6"/>
      </g>
     </g>
    </g>
    <g id="xtick_18">
     <g id="line2d_27">
      <g>
       <use xlink:href="#ma63ff860be" x="395.203497" y="266.24103" style="stroke: #000000; stroke-width: 0.6"/>
      </g>
     </g>
    </g>
    <g id="xtick_19">
     <g id="line2d_28">
      <g>
       <use xlink:href="#ma63ff860be" x="429.858932" y="266.24103" style="stroke: #000000; stroke-width: 0.6"/>
      </g>
     </g>
    </g>
    <g id="xtick_20">
     <g id="line2d_29">
      <g>
       <use xlink:href="#ma63ff860be" x="443.034317" y="266.24103" style="stroke: #000000; stroke-width: 0.6"/>
      </g>
     </g>
    </g>
    <g id="xtick_21">
     <g id="line2d_30">
      <g>
       <use xlink:href="#ma63ff860be" x="454.447354" y="266.24103" style="stroke: #000000; stroke-width: 0.6"/>
      </g>
     </g>
    </g>
    <g id="xtick_22">
     <g id="line2d_31">
      <g>
       <use xlink:href="#ma63ff860be" x="464.514367" y="266.24103" style="stroke: #000000; stroke-width: 0.6"/>
      </g>
     </g>
    </g>
    <g id="text_10">
     <!-- Number of Observed Sessions -->
     <g transform="translate(192.427422 310.438647) scale(0.11 -0.11)">
      <defs>
       <path id="DejaVuSerif-4e" d="M 313 0 
L 313 331 
L 941 331 
L 941 4331 
L 313 4331 
L 313 4666 
L 1509 4666 
L 4306 984 
L 4306 4331 
L 3681 4331 
L 3681 4666 
L 5319 4666 
L 5319 4331 
L 4691 4331 
L 4691 -91 
L 4313 -91 
L 1325 3841 
L 1325 331 
L 1953 331 
L 1953 0 
L 313 0 
z
" transform="scale(0.015625)"/>
       <path id="DejaVuSerif-75" d="M 2266 3322 
L 3341 3322 
L 3341 331 
L 3884 331 
L 3884 0 
L 2766 0 
L 2766 588 
Q 2606 256 2353 82 
Q 2100 -91 1766 -91 
Q 1213 -91 952 223 
Q 691 538 691 1209 
L 691 2988 
L 172 2988 
L 172 3322 
L 1269 3322 
L 1269 1388 
Q 1269 781 1417 556 
Q 1566 331 1947 331 
Q 2347 331 2556 625 
Q 2766 919 2766 1478 
L 2766 2988 
L 2266 2988 
L 2266 3322 
z
" transform="scale(0.015625)"/>
       <path id="DejaVuSerif-6d" d="M 3316 2675 
Q 3481 3041 3739 3227 
Q 3997 3413 4341 3413 
Q 4863 3413 5119 3089 
Q 5375 2766 5375 2113 
L 5375 331 
L 5894 331 
L 5894 0 
L 4300 0 
L 4300 331 
L 4800 331 
L 4800 2047 
Q 4800 2556 4650 2772 
Q 4500 2988 4153 2988 
Q 3769 2988 3567 2697 
Q 3366 2406 3366 1850 
L 3366 331 
L 3866 331 
L 3866 0 
L 2291 0 
L 2291 331 
L 2791 331 
L 2791 2069 
Q 2791 2566 2641 2777 
Q 2491 2988 2144 2988 
Q 1759 2988 1557 2697 
Q 1356 2406 1356 1850 
L 1356 331 
L 1856 331 
L 1856 0 
L 263 0 
L 263 331 
L 781 331 
L 781 2994 
L 231 2994 
L 231 3322 
L 1356 3322 
L 1356 2731 
Q 1516 3063 1762 3238 
Q 2009 3413 2322 3413 
Q 2709 3413 2968 3220 
Q 3228 3028 3316 2675 
z
" transform="scale(0.015625)"/>
       <path id="DejaVuSerif-62" d="M 738 331 
L 738 4531 
L 184 4531 
L 184 4863 
L 1313 4863 
L 1313 2803 
Q 1481 3116 1742 3264 
Q 2003 3413 2388 3413 
Q 3000 3413 3387 2928 
Q 3775 2444 3775 1663 
Q 3775 881 3387 395 
Q 3000 -91 2388 -91 
Q 2003 -91 1742 57 
Q 1481 206 1313 519 
L 1313 0 
L 184 0 
L 184 331 
L 738 331 
z
M 1313 1497 
Q 1313 897 1542 583 
Q 1772 269 2209 269 
Q 2650 269 2876 622 
Q 3103 975 3103 1663 
Q 3103 2353 2876 2703 
Q 2650 3053 2209 3053 
Q 1772 3053 1542 2737 
Q 1313 2422 1313 1825 
L 1313 1497 
z
" transform="scale(0.015625)"/>
       <path id="DejaVuSerif-65" d="M 3469 1600 
L 991 1600 
L 991 1575 
Q 991 903 1244 561 
Q 1497 219 1991 219 
Q 2369 219 2611 417 
Q 2853 616 2950 1006 
L 3413 1006 
Q 3275 459 2904 184 
Q 2534 -91 1931 -91 
Q 1203 -91 761 389 
Q 319 869 319 1663 
Q 319 2450 753 2931 
Q 1188 3413 1894 3413 
Q 2647 3413 3050 2948 
Q 3453 2484 3469 1600 
z
M 2791 1931 
Q 2772 2513 2545 2808 
Q 2319 3103 1894 3103 
Q 1497 3103 1269 2806 
Q 1041 2509 991 1931 
L 2791 1931 
z
" transform="scale(0.015625)"/>
       <path id="DejaVuSerif-72" d="M 3059 3328 
L 3059 2497 
L 2728 2497 
Q 2713 2744 2591 2866 
Q 2469 2988 2234 2988 
Q 1809 2988 1582 2694 
Q 1356 2400 1356 1850 
L 1356 331 
L 2022 331 
L 2022 0 
L 263 0 
L 263 331 
L 781 331 
L 781 2994 
L 231 2994 
L 231 3322 
L 1356 3322 
L 1356 2731 
Q 1525 3078 1790 3245 
Q 2056 3413 2438 3413 
Q 2578 3413 2733 3391 
Q 2888 3369 3059 3328 
z
" transform="scale(0.015625)"/>
       <path id="DejaVuSerif-20" transform="scale(0.015625)"/>
       <path id="DejaVuSerif-6f" d="M 1925 219 
Q 2388 219 2623 584 
Q 2859 950 2859 1663 
Q 2859 2375 2623 2739 
Q 2388 3103 1925 3103 
Q 1463 3103 1227 2739 
Q 991 2375 991 1663 
Q 991 950 1228 584 
Q 1466 219 1925 219 
z
M 1925 -91 
Q 1200 -91 759 389 
Q 319 869 319 1663 
Q 319 2456 758 2934 
Q 1197 3413 1925 3413 
Q 2653 3413 3092 2934 
Q 3531 2456 3531 1663 
Q 3531 869 3092 389 
Q 2653 -91 1925 -91 
z
" transform="scale(0.015625)"/>
       <path id="DejaVuSerif-66" d="M 2753 4078 
L 2450 4078 
Q 2447 4313 2317 4434 
Q 2188 4556 1941 4556 
Q 1619 4556 1487 4379 
Q 1356 4203 1356 3750 
L 1356 3322 
L 2284 3322 
L 2284 2988 
L 1356 2988 
L 1356 331 
L 2094 331 
L 2094 0 
L 231 0 
L 231 331 
L 781 331 
L 781 2988 
L 231 2988 
L 231 3322 
L 781 3322 
L 781 3738 
Q 781 4294 1070 4578 
Q 1359 4863 1919 4863 
Q 2128 4863 2337 4825 
Q 2547 4788 2753 4709 
L 2753 4078 
z
" transform="scale(0.015625)"/>
       <path id="DejaVuSerif-4f" d="M 2625 244 
Q 3391 244 3781 770 
Q 4172 1297 4172 2328 
Q 4172 3363 3781 3889 
Q 3391 4416 2625 4416 
Q 1856 4416 1465 3889 
Q 1075 3363 1075 2328 
Q 1075 1297 1465 770 
Q 1856 244 2625 244 
z
M 2625 -91 
Q 2150 -91 1751 65 
Q 1353 222 1050 525 
Q 700 875 529 1319 
Q 359 1763 359 2328 
Q 359 2894 529 3339 
Q 700 3784 1050 4134 
Q 1356 4441 1750 4595 
Q 2144 4750 2625 4750 
Q 3641 4750 4266 4084 
Q 4891 3419 4891 2328 
Q 4891 1769 4719 1320 
Q 4547 872 4197 525 
Q 3891 219 3497 64 
Q 3103 -91 2625 -91 
z
" transform="scale(0.015625)"/>
       <path id="DejaVuSerif-73" d="M 359 184 
L 359 959 
L 691 959 
Q 703 588 923 403 
Q 1144 219 1575 219 
Q 1963 219 2166 364 
Q 2369 509 2369 788 
Q 2369 1006 2220 1140 
Q 2072 1275 1594 1428 
L 1178 1569 
Q 750 1706 558 1912 
Q 366 2119 366 2438 
Q 366 2894 700 3153 
Q 1034 3413 1625 3413 
Q 1888 3413 2178 3344 
Q 2469 3275 2778 3144 
L 2778 2419 
L 2447 2419 
Q 2434 2741 2221 2922 
Q 2009 3103 1644 3103 
Q 1281 3103 1095 2975 
Q 909 2847 909 2591 
Q 909 2381 1050 2254 
Q 1191 2128 1613 1997 
L 2069 1856 
Q 2541 1709 2748 1489 
Q 2956 1269 2956 922 
Q 2956 450 2595 179 
Q 2234 -91 1600 -91 
Q 1278 -91 972 -22 
Q 666 47 359 184 
z
" transform="scale(0.015625)"/>
       <path id="DejaVuSerif-76" d="M 1581 0 
L 359 2988 
L -19 2988 
L -19 3322 
L 1509 3322 
L 1509 2988 
L 978 2988 
L 1913 703 
L 2847 2988 
L 2350 2988 
L 2350 3322 
L 3597 3322 
L 3597 2988 
L 3225 2988 
L 2003 0 
L 1581 0 
z
" transform="scale(0.015625)"/>
       <path id="DejaVuSerif-64" d="M 3359 331 
L 3909 331 
L 3909 0 
L 2784 0 
L 2784 519 
Q 2616 206 2355 57 
Q 2094 -91 1709 -91 
Q 1097 -91 708 395 
Q 319 881 319 1663 
Q 319 2444 706 2928 
Q 1094 3413 1709 3413 
Q 2094 3413 2355 3264 
Q 2616 3116 2784 2803 
L 2784 4531 
L 2241 4531 
L 2241 4863 
L 3359 4863 
L 3359 331 
z
M 2784 1497 
L 2784 1825 
Q 2784 2422 2554 2737 
Q 2325 3053 1888 3053 
Q 1444 3053 1217 2703 
Q 991 2353 991 1663 
Q 991 975 1217 622 
Q 1444 269 1888 269 
Q 2325 269 2554 583 
Q 2784 897 2784 1497 
z
" transform="scale(0.015625)"/>
       <path id="DejaVuSerif-53" d="M 594 225 
L 594 1288 
L 953 1284 
Q 969 753 1261 498 
Q 1553 244 2150 244 
Q 2706 244 2998 464 
Q 3291 684 3291 1106 
Q 3291 1444 3114 1625 
Q 2938 1806 2369 1978 
L 1753 2163 
Q 1084 2366 811 2669 
Q 538 2972 538 3500 
Q 538 4094 959 4422 
Q 1381 4750 2144 4750 
Q 2469 4750 2856 4679 
Q 3244 4609 3681 4475 
L 3681 3481 
L 3328 3481 
Q 3275 3975 2998 4195 
Q 2722 4416 2156 4416 
Q 1663 4416 1405 4214 
Q 1147 4013 1147 3628 
Q 1147 3294 1340 3103 
Q 1534 2913 2163 2725 
L 2741 2553 
Q 3375 2363 3645 2067 
Q 3916 1772 3916 1275 
Q 3916 597 3481 253 
Q 3047 -91 2188 -91 
Q 1803 -91 1404 -12 
Q 1006 66 594 225 
z
" transform="scale(0.015625)"/>
       <path id="DejaVuSerif-69" d="M 622 4353 
Q 622 4497 726 4603 
Q 831 4709 978 4709 
Q 1122 4709 1226 4603 
Q 1331 4497 1331 4353 
Q 1331 4206 1228 4103 
Q 1125 4000 978 4000 
Q 831 4000 726 4103 
Q 622 4206 622 4353 
z
M 1356 331 
L 1900 331 
L 1900 0 
L 231 0 
L 231 331 
L 781 331 
L 781 2988 
L 231 2988 
L 231 3322 
L 1356 3322 
L 1356 331 
z
" transform="scale(0.015625)"/>
       <path id="DejaVuSerif-6e" d="M 263 0 
L 263 331 
L 781 331 
L 781 2988 
L 231 2988 
L 231 3322 
L 1356 3322 
L 1356 2731 
Q 1516 3069 1770 3241 
Q 2025 3413 2363 3413 
Q 2913 3413 3172 3097 
Q 3431 2781 3431 2113 
L 3431 331 
L 3944 331 
L 3944 0 
L 2356 0 
L 2356 331 
L 2853 331 
L 2853 1931 
Q 2853 2541 2703 2767 
Q 2553 2994 2175 2994 
Q 1775 2994 1565 2701 
Q 1356 2409 1356 1850 
L 1356 331 
L 1856 331 
L 1856 0 
L 263 0 
z
" transform="scale(0.015625)"/>
      </defs>
      <use xlink:href="#DejaVuSerif-4e"/>
      <use xlink:href="#DejaVuSerif-75" transform="translate(87.5 0)"/>
      <use xlink:href="#DejaVuSerif-6d" transform="translate(151.904297 0)"/>
      <use xlink:href="#DejaVuSerif-62" transform="translate(246.728516 0)"/>
      <use xlink:href="#DejaVuSerif-65" transform="translate(310.742188 0)"/>
      <use xlink:href="#DejaVuSerif-72" transform="translate(369.921875 0)"/>
      <use xlink:href="#DejaVuSerif-20" transform="translate(417.724609 0)"/>
      <use xlink:href="#DejaVuSerif-6f" transform="translate(449.511719 0)"/>
      <use xlink:href="#DejaVuSerif-66" transform="translate(509.716797 0)"/>
      <use xlink:href="#DejaVuSerif-20" transform="translate(546.728516 0)"/>
      <use xlink:href="#DejaVuSerif-4f" transform="translate(578.515625 0)"/>
      <use xlink:href="#DejaVuSerif-62" transform="translate(660.498047 0)"/>
      <use xlink:href="#DejaVuSerif-73" transform="translate(724.511719 0)"/>
      <use xlink:href="#DejaVuSerif-65" transform="translate(775.830078 0)"/>
      <use xlink:href="#DejaVuSerif-72" transform="translate(835.009766 0)"/>
      <use xlink:href="#DejaVuSerif-76" transform="translate(882.8125 0)"/>
      <use xlink:href="#DejaVuSerif-65" transform="translate(939.306641 0)"/>
      <use xlink:href="#DejaVuSerif-64" transform="translate(998.486328 0)"/>
      <use xlink:href="#DejaVuSerif-20" transform="translate(1062.5 0)"/>
      <use xlink:href="#DejaVuSerif-53" transform="translate(1094.287109 0)"/>
      <use xlink:href="#DejaVuSerif-65" transform="translate(1162.792969 0)"/>
      <use xlink:href="#DejaVuSerif-73" transform="translate(1221.972656 0)"/>
      <use xlink:href="#DejaVuSerif-73" transform="translate(1273.291016 0)"/>
      <use xlink:href="#DejaVuSerif-69" transform="translate(1324.609375 0)"/>
      <use xlink:href="#DejaVuSerif-6f" transform="translate(1356.591797 0)"/>
      <use xlink:href="#DejaVuSerif-6e" transform="translate(1416.796875 0)"/>
      <use xlink:href="#DejaVuSerif-73" transform="translate(1481.201172 0)"/>
     </g>
    </g>
   </g>
   <g id="matplotlib.axis_2">
    <g id="ytick_1">
     <g id="line2d_32">
      <path d="M 60.231564 266.24103 
L 493.2 266.24103 
" clip-path="url(#p7a43b2fab3)" style="fill: none; stroke: #b0b0b0; stroke-opacity: 0.2; stroke-width: 0.8; stroke-linecap: square"/>
     </g>
     <g id="line2d_33">
      <defs>
       <path id="m763098e527" d="M 0 0 
L -3.5 0 
" style="stroke: #000000; stroke-width: 0.8"/>
      </defs>
      <g>
       <use xlink:href="#m763098e527" x="60.231564" y="266.24103" style="stroke: #000000; stroke-width: 0.8"/>
      </g>
     </g>
     <g id="text_11">
      <!-- $\mathdefault{10^{-12}}$ -->
      <g transform="translate(25.331564 270.040249) scale(0.1 -0.1)">
       <defs>
        <path id="DejaVuSerif-2212" d="M 678 2259 
L 4684 2259 
L 4684 1753 
L 678 1753 
L 678 2259 
z
" transform="scale(0.015625)"/>
       </defs>
       <use xlink:href="#DejaVuSerif-31" transform="translate(0 0.7125)"/>
       <use xlink:href="#DejaVuSerif-30" transform="translate(63.623047 0.7125)"/>
       <use xlink:href="#DejaVuSerif-2212" transform="translate(128.154453 37.046875) scale(0.7)"/>
       <use xlink:href="#DejaVuSerif-31" transform="translate(186.806797 37.046875) scale(0.7)"/>
       <use xlink:href="#DejaVuSerif-32" transform="translate(231.34293 37.046875) scale(0.7)"/>
      </g>
     </g>
    </g>
    <g id="ytick_2">
     <g id="line2d_34">
      <path d="M 60.231564 227.185393 
L 493.2 227.185393 
" clip-path="url(#p7a43b2fab3)" style="fill: none; stroke: #b0b0b0; stroke-opacity: 0.2; stroke-width: 0.8; stroke-linecap: square"/>
     </g>
     <g id="line2d_35">
      <g>
       <use xlink:href="#m763098e527" x="60.231564" y="227.185393" style="stroke: #000000; stroke-width: 0.8"/>
      </g>
     </g>
     <g id="text_12">
      <!-- $\mathdefault{10^{-10}}$ -->
      <g transform="translate(25.331564 230.984612) scale(0.1 -0.1)">
       <use xlink:href="#DejaVuSerif-31" transform="translate(0 0.7125)"/>
       <use xlink:href="#DejaVuSerif-30" transform="translate(63.623047 0.7125)"/>
       <use xlink:href="#DejaVuSerif-2212" transform="translate(128.154453 37.046875) scale(0.7)"/>
       <use xlink:href="#DejaVuSerif-31" transform="translate(186.806797 37.046875) scale(0.7)"/>
       <use xlink:href="#DejaVuSerif-30" transform="translate(231.34293 37.046875) scale(0.7)"/>
      </g>
     </g>
    </g>
    <g id="ytick_3">
     <g id="line2d_36">
      <path d="M 60.231564 188.129757 
L 493.2 188.129757 
" clip-path="url(#p7a43b2fab3)" style="fill: none; stroke: #b0b0b0; stroke-opacity: 0.2; stroke-width: 0.8; stroke-linecap: square"/>
     </g>
     <g id="line2d_37">
      <g>
       <use xlink:href="#m763098e527" x="60.231564" y="188.129757" style="stroke: #000000; stroke-width: 0.8"/>
      </g>
     </g>
     <g id="text_13">
      <!-- $\mathdefault{10^{-8}}$ -->
      <g transform="translate(29.831564 191.928975) scale(0.1 -0.1)">
       <defs>
        <path id="DejaVuSerif-38" d="M 2981 1275 
Q 2981 1775 2732 2051 
Q 2484 2328 2034 2328 
Q 1584 2328 1336 2051 
Q 1088 1775 1088 1275 
Q 1088 772 1336 495 
Q 1584 219 2034 219 
Q 2484 219 2732 495 
Q 2981 772 2981 1275 
z
M 2853 3541 
Q 2853 3966 2637 4203 
Q 2422 4441 2034 4441 
Q 1650 4441 1433 4203 
Q 1216 3966 1216 3541 
Q 1216 3113 1433 2875 
Q 1650 2638 2034 2638 
Q 2422 2638 2637 2875 
Q 2853 3113 2853 3541 
z
M 2516 2484 
Q 3047 2413 3344 2092 
Q 3641 1772 3641 1275 
Q 3641 619 3225 264 
Q 2809 -91 2034 -91 
Q 1263 -91 845 264 
Q 428 619 428 1275 
Q 428 1772 725 2092 
Q 1022 2413 1556 2484 
Q 1084 2569 832 2842 
Q 581 3116 581 3541 
Q 581 4103 968 4426 
Q 1356 4750 2034 4750 
Q 2713 4750 3100 4426 
Q 3488 4103 3488 3541 
Q 3488 3116 3236 2842 
Q 2984 2569 2516 2484 
z
" transform="scale(0.015625)"/>
       </defs>
       <use xlink:href="#DejaVuSerif-31" transform="translate(0 0.7125)"/>
       <use xlink:href="#DejaVuSerif-30" transform="translate(63.623047 0.7125)"/>
       <use xlink:href="#DejaVuSerif-2212" transform="translate(128.154453 37.046875) scale(0.7)"/>
       <use xlink:href="#DejaVuSerif-38" transform="translate(186.806797 37.046875) scale(0.7)"/>
      </g>
     </g>
    </g>
    <g id="ytick_4">
     <g id="line2d_38">
      <path d="M 60.231564 149.07412 
L 493.2 149.07412 
" clip-path="url(#p7a43b2fab3)" style="fill: none; stroke: #b0b0b0; stroke-opacity: 0.2; stroke-width: 0.8; stroke-linecap: square"/>
     </g>
     <g id="line2d_39">
      <g>
       <use xlink:href="#m763098e527" x="60.231564" y="149.07412" style="stroke: #000000; stroke-width: 0.8"/>
      </g>
     </g>
     <g id="text_14">
      <!-- $\mathdefault{10^{-6}}$ -->
      <g transform="translate(29.831564 152.873338) scale(0.1 -0.1)">
       <defs>
        <path id="DejaVuSerif-36" d="M 2094 219 
Q 2534 219 2771 542 
Q 3009 866 3009 1472 
Q 3009 2078 2771 2401 
Q 2534 2725 2094 2725 
Q 1647 2725 1412 2412 
Q 1178 2100 1178 1509 
Q 1178 888 1415 553 
Q 1653 219 2094 219 
z
M 1075 2569 
Q 1288 2803 1556 2918 
Q 1825 3034 2163 3034 
Q 2859 3034 3264 2615 
Q 3669 2197 3669 1472 
Q 3669 763 3233 336 
Q 2797 -91 2069 -91 
Q 1278 -91 853 498 
Q 428 1088 428 2181 
Q 428 3406 931 4078 
Q 1434 4750 2350 4750 
Q 2597 4750 2869 4703 
Q 3141 4656 3425 4563 
L 3425 3794 
L 3072 3794 
Q 3034 4109 2831 4275 
Q 2628 4441 2284 4441 
Q 1678 4441 1381 3981 
Q 1084 3522 1075 2569 
z
" transform="scale(0.015625)"/>
       </defs>
       <use xlink:href="#DejaVuSerif-31" transform="translate(0 0.7125)"/>
       <use xlink:href="#DejaVuSerif-30" transform="translate(63.623047 0.7125)"/>
       <use xlink:href="#DejaVuSerif-2212" transform="translate(128.154453 37.046875) scale(0.7)"/>
       <use xlink:href="#DejaVuSerif-36" transform="translate(186.806797 37.046875) scale(0.7)"/>
      </g>
     </g>
    </g>
    <g id="ytick_5">
     <g id="line2d_40">
      <path d="M 60.231564 110.018483 
L 493.2 110.018483 
" clip-path="url(#p7a43b2fab3)" style="fill: none; stroke: #b0b0b0; stroke-opacity: 0.2; stroke-width: 0.8; stroke-linecap: square"/>
     </g>
     <g id="line2d_41">
      <g>
       <use xlink:href="#m763098e527" x="60.231564" y="110.018483" style="stroke: #000000; stroke-width: 0.8"/>
      </g>
     </g>
     <g id="text_15">
      <!-- $\mathdefault{10^{-4}}$ -->
      <g transform="translate(29.831564 113.817702) scale(0.1 -0.1)">
       <defs>
        <path id="DejaVuSerif-34" d="M 2234 1581 
L 2234 4063 
L 641 1581 
L 2234 1581 
z
M 3609 0 
L 1484 0 
L 1484 331 
L 2234 331 
L 2234 1247 
L 197 1247 
L 197 1588 
L 2241 4750 
L 2859 4750 
L 2859 1581 
L 3750 1581 
L 3750 1247 
L 2859 1247 
L 2859 331 
L 3609 331 
L 3609 0 
z
" transform="scale(0.015625)"/>
       </defs>
       <use xlink:href="#DejaVuSerif-31" transform="translate(0 0.7125)"/>
       <use xlink:href="#DejaVuSerif-30" transform="translate(63.623047 0.7125)"/>
       <use xlink:href="#DejaVuSerif-2212" transform="translate(128.154453 37.046875) scale(0.7)"/>
       <use xlink:href="#DejaVuSerif-34" transform="translate(186.806797 37.046875) scale(0.7)"/>
      </g>
     </g>
    </g>
    <g id="ytick_6">
     <g id="line2d_42">
      <path d="M 60.231564 70.962846 
L 493.2 70.962846 
" clip-path="url(#p7a43b2fab3)" style="fill: none; stroke: #b0b0b0; stroke-opacity: 0.2; stroke-width: 0.8; stroke-linecap: square"/>
     </g>
     <g id="line2d_43">
      <g>
       <use xlink:href="#m763098e527" x="60.231564" y="70.962846" style="stroke: #000000; stroke-width: 0.8"/>
      </g>
     </g>
     <g id="text_16">
      <!-- $\mathdefault{10^{-2}}$ -->
      <g transform="translate(29.831564 74.762065) scale(0.1 -0.1)">
       <use xlink:href="#DejaVuSerif-31" transform="translate(0 0.7125)"/>
       <use xlink:href="#DejaVuSerif-30" transform="translate(63.623047 0.7125)"/>
       <use xlink:href="#DejaVuSerif-2212" transform="translate(128.154453 37.046875) scale(0.7)"/>
       <use xlink:href="#DejaVuSerif-32" transform="translate(186.806797 37.046875) scale(0.7)"/>
      </g>
     </g>
    </g>
    <g id="ytick_7">
     <g id="line2d_44">
      <path d="M 60.231564 31.907209 
L 493.2 31.907209 
" clip-path="url(#p7a43b2fab3)" style="fill: none; stroke: #b0b0b0; stroke-opacity: 0.2; stroke-width: 0.8; stroke-linecap: square"/>
     </g>
     <g id="line2d_45">
      <g>
       <use xlink:href="#m763098e527" x="60.231564" y="31.907209" style="stroke: #000000; stroke-width: 0.8"/>
      </g>
     </g>
     <g id="text_17">
      <!-- $\mathdefault{10^{0}}$ -->
      <g transform="translate(35.631564 35.706428) scale(0.1 -0.1)">
       <use xlink:href="#DejaVuSerif-31" transform="translate(0 0.7125)"/>
       <use xlink:href="#DejaVuSerif-30" transform="translate(63.623047 0.7125)"/>
       <use xlink:href="#DejaVuSerif-30" transform="translate(128.154453 37.046875) scale(0.7)"/>
      </g>
     </g>
    </g>
    <g id="text_18">
     <!-- KS Test p-value -->
     <g transform="translate(19.043907 189.360593) rotate(-90) scale(0.11 -0.11)">
      <defs>
       <path id="DejaVuSerif-4b" d="M 353 0 
L 353 331 
L 947 331 
L 947 4331 
L 353 4331 
L 353 4666 
L 2175 4666 
L 2175 4331 
L 1581 4331 
L 1581 2566 
L 3591 4331 
L 3084 4331 
L 3084 4666 
L 4634 4666 
L 4634 4331 
L 4109 4331 
L 2106 2572 
L 4347 331 
L 4878 331 
L 4878 0 
L 3794 0 
L 1581 2216 
L 1581 331 
L 2175 331 
L 2175 0 
L 353 0 
z
" transform="scale(0.015625)"/>
       <path id="DejaVuSerif-54" d="M 1222 0 
L 1222 331 
L 1819 331 
L 1819 4294 
L 447 4294 
L 447 3566 
L 63 3566 
L 63 4666 
L 4206 4666 
L 4206 3566 
L 3822 3566 
L 3822 4294 
L 2450 4294 
L 2450 331 
L 3047 331 
L 3047 0 
L 1222 0 
z
" transform="scale(0.015625)"/>
       <path id="DejaVuSerif-74" d="M 691 2988 
L 184 2988 
L 184 3322 
L 691 3322 
L 691 4353 
L 1269 4353 
L 1269 3322 
L 2350 3322 
L 2350 2988 
L 1269 2988 
L 1269 878 
Q 1269 456 1350 337 
Q 1431 219 1650 219 
Q 1875 219 1978 351 
Q 2081 484 2088 781 
L 2522 781 
Q 2497 328 2275 118 
Q 2053 -91 1600 -91 
Q 1103 -91 897 129 
Q 691 350 691 878 
L 691 2988 
z
" transform="scale(0.015625)"/>
       <path id="DejaVuSerif-70" d="M 1313 1825 
L 1313 1497 
Q 1313 897 1542 583 
Q 1772 269 2209 269 
Q 2650 269 2876 622 
Q 3103 975 3103 1663 
Q 3103 2353 2876 2703 
Q 2650 3053 2209 3053 
Q 1772 3053 1542 2737 
Q 1313 2422 1313 1825 
z
M 738 2988 
L 184 2988 
L 184 3322 
L 1313 3322 
L 1313 2803 
Q 1481 3116 1742 3264 
Q 2003 3413 2388 3413 
Q 3000 3413 3387 2928 
Q 3775 2444 3775 1663 
Q 3775 881 3387 395 
Q 3000 -91 2388 -91 
Q 2003 -91 1742 57 
Q 1481 206 1313 519 
L 1313 -997 
L 1856 -997 
L 1856 -1331 
L 184 -1331 
L 184 -997 
L 738 -997 
L 738 2988 
z
" transform="scale(0.015625)"/>
       <path id="DejaVuSerif-2d" d="M 281 1959 
L 1881 1959 
L 1881 1472 
L 281 1472 
L 281 1959 
z
" transform="scale(0.015625)"/>
       <path id="DejaVuSerif-61" d="M 2547 1044 
L 2547 1747 
L 1806 1747 
Q 1378 1747 1168 1562 
Q 959 1378 959 997 
Q 959 650 1171 447 
Q 1384 244 1747 244 
Q 2106 244 2326 466 
Q 2547 688 2547 1044 
z
M 3122 2075 
L 3122 331 
L 3634 331 
L 3634 0 
L 2547 0 
L 2547 359 
Q 2356 128 2106 18 
Q 1856 -91 1522 -91 
Q 969 -91 644 203 
Q 319 497 319 997 
Q 319 1513 691 1797 
Q 1063 2081 1741 2081 
L 2547 2081 
L 2547 2309 
Q 2547 2688 2317 2895 
Q 2088 3103 1672 3103 
Q 1328 3103 1125 2947 
Q 922 2791 872 2484 
L 575 2484 
L 575 3156 
Q 875 3284 1158 3348 
Q 1441 3413 1709 3413 
Q 2400 3413 2761 3070 
Q 3122 2728 3122 2075 
z
" transform="scale(0.015625)"/>
       <path id="DejaVuSerif-6c" d="M 1313 331 
L 1856 331 
L 1856 0 
L 184 0 
L 184 331 
L 738 331 
L 738 4531 
L 184 4531 
L 184 4863 
L 1313 4863 
L 1313 331 
z
" transform="scale(0.015625)"/>
      </defs>
      <use xlink:href="#DejaVuSerif-4b"/>
      <use xlink:href="#DejaVuSerif-53" transform="translate(74.707031 0)"/>
      <use xlink:href="#DejaVuSerif-20" transform="translate(143.212891 0)"/>
      <use xlink:href="#DejaVuSerif-54" transform="translate(175 0)"/>
      <use xlink:href="#DejaVuSerif-65" transform="translate(233.949219 0)"/>
      <use xlink:href="#DejaVuSerif-73" transform="translate(293.128906 0)"/>
      <use xlink:href="#DejaVuSerif-74" transform="translate(344.447266 0)"/>
      <use xlink:href="#DejaVuSerif-20" transform="translate(384.632812 0)"/>
      <use xlink:href="#DejaVuSerif-70" transform="translate(416.419922 0)"/>
      <use xlink:href="#DejaVuSerif-2d" transform="translate(480.433594 0)"/>
      <use xlink:href="#DejaVuSerif-76" transform="translate(514.222656 0)"/>
      <use xlink:href="#DejaVuSerif-61" transform="translate(570.716797 0)"/>
      <use xlink:href="#DejaVuSerif-6c" transform="translate(630.335938 0)"/>
      <use xlink:href="#DejaVuSerif-75" transform="translate(662.318359 0)"/>
      <use xlink:href="#DejaVuSerif-65" transform="translate(726.722656 0)"/>
     </g>
    </g>
   </g>
   <g id="line2d_46">
    <path d="M 79.911947 69.179247 
L 139.155805 114.982803 
L 217.471924 135.757664 
L 276.715782 211.413117 
L 335.959639 266.24103 
L 370.615074 266.24103 
L 414.275759 266.24103 
L 448.931194 266.24103 
L 473.519617 266.24103 
" clip-path="url(#p7a43b2fab3)" style="fill: none; stroke: #e74c3c; stroke-width: 2; stroke-linecap: square"/>
    <defs>
     <path id="m7e51c08500" d="M 0 2.5 
C 0.663008 2.5 1.29895 2.236584 1.767767 1.767767 
C 2.236584 1.29895 2.5 0.663008 2.5 0 
C 2.5 -0.663008 2.236584 -1.29895 1.767767 -1.767767 
C 1.29895 -2.236584 0.663008 -2.5 0 -2.5 
C -0.663008 -2.5 -1.29895 -2.236584 -1.767767 -1.767767 
C -2.236584 -1.29895 -2.5 -0.663008 -2.5 0 
C -2.5 0.663008 -2.236584 1.29895 -1.767767 1.767767 
C -1.29895 2.236584 -0.663008 2.5 0 2.5 
z
" style="stroke: #e74c3c"/>
    </defs>
    <g clip-path="url(#p7a43b2fab3)">
     <use xlink:href="#m7e51c08500" x="79.911947" y="69.179247" style="fill: #e74c3c; stroke: #e74c3c"/>
     <use xlink:href="#m7e51c08500" x="139.155805" y="114.982803" style="fill: #e74c3c; stroke: #e74c3c"/>
     <use xlink:href="#m7e51c08500" x="217.471924" y="135.757664" style="fill: #e74c3c; stroke: #e74c3c"/>
     <use xlink:href="#m7e51c08500" x="276.715782" y="211.413117" style="fill: #e74c3c; stroke: #e74c3c"/>
     <use xlink:href="#m7e51c08500" x="335.959639" y="266.24103" style="fill: #e74c3c; stroke: #e74c3c"/>
     <use xlink:href="#m7e51c08500" x="370.615074" y="266.24103" style="fill: #e74c3c; stroke: #e74c3c"/>
     <use xlink:href="#m7e51c08500" x="414.275759" y="266.24103" style="fill: #e74c3c; stroke: #e74c3c"/>
     <use xlink:href="#m7e51c08500" x="448.931194" y="266.24103" style="fill: #e74c3c; stroke: #e74c3c"/>
     <use xlink:href="#m7e51c08500" x="473.519617" y="266.24103" style="fill: #e74c3c; stroke: #e74c3c"/>
    </g>
   </g>
   <g id="line2d_47">
    <path d="M 79.911947 33.939352 
L 139.155805 41.1671 
L 217.471924 42.95154 
L 276.715782 63.518454 
L 335.959639 124.43692 
L 370.615074 199.715542 
L 414.275759 266.24103 
L 448.931194 266.24103 
L 473.519617 266.24103 
" clip-path="url(#p7a43b2fab3)" style="fill: none; stroke: #e67e22; stroke-width: 2; stroke-linecap: square"/>
    <defs>
     <path id="m6fdeb5f151" d="M 0 2.5 
C 0.663008 2.5 1.29895 2.236584 1.767767 1.767767 
C 2.236584 1.29895 2.5 0.663008 2.5 0 
C 2.5 -0.663008 2.236584 -1.29895 1.767767 -1.767767 
C 1.29895 -2.236584 0.663008 -2.5 0 -2.5 
C -0.663008 -2.5 -1.29895 -2.236584 -1.767767 -1.767767 
C -2.236584 -1.29895 -2.5 -0.663008 -2.5 0 
C -2.5 0.663008 -2.236584 1.29895 -1.767767 1.767767 
C -1.29895 2.236584 -0.663008 2.5 0 2.5 
z
" style="stroke: #e67e22"/>
    </defs>
    <g clip-path="url(#p7a43b2fab3)">
     <use xlink:href="#m6fdeb5f151" x="79.911947" y="33.939352" style="fill: #e67e22; stroke: #e67e22"/>
     <use xlink:href="#m6fdeb5f151" x="139.155805" y="41.1671" style="fill: #e67e22; stroke: #e67e22"/>
     <use xlink:href="#m6fdeb5f151" x="217.471924" y="42.95154" style="fill: #e67e22; stroke: #e67e22"/>
     <use xlink:href="#m6fdeb5f151" x="276.715782" y="63.518454" style="fill: #e67e22; stroke: #e67e22"/>
     <use xlink:href="#m6fdeb5f151" x="335.959639" y="124.43692" style="fill: #e67e22; stroke: #e67e22"/>
     <use xlink:href="#m6fdeb5f151" x="370.615074" y="199.715542" style="fill: #e67e22; stroke: #e67e22"/>
     <use xlink:href="#m6fdeb5f151" x="414.275759" y="266.24103" style="fill: #e67e22; stroke: #e67e22"/>
     <use xlink:href="#m6fdeb5f151" x="448.931194" y="266.24103" style="fill: #e67e22; stroke: #e67e22"/>
     <use xlink:href="#m6fdeb5f151" x="473.519617" y="266.24103" style="fill: #e67e22; stroke: #e67e22"/>
    </g>
   </g>
   <g id="line2d_48">
    <path d="M 79.911947 31.954344 
L 139.155805 41.1671 
L 217.471924 39.764632 
L 276.715782 42.6444 
L 335.959639 52.534759 
L 370.615074 75.976341 
L 414.275759 102.322322 
L 448.931194 139.367822 
L 473.519617 187.972627 
" clip-path="url(#p7a43b2fab3)" style="fill: none; stroke: #2ecc71; stroke-width: 2; stroke-linecap: square"/>
    <defs>
     <path id="m3697c8ae69" d="M 0 2.5 
C 0.663008 2.5 1.29895 2.236584 1.767767 1.767767 
C 2.236584 1.29895 2.5 0.663008 2.5 0 
C 2.5 -0.663008 2.236584 -1.29895 1.767767 -1.767767 
C 1.29895 -2.236584 0.663008 -2.5 0 -2.5 
C -0.663008 -2.5 -1.29895 -2.236584 -1.767767 -1.767767 
C -2.236584 -1.29895 -2.5 -0.663008 -2.5 0 
C -2.5 0.663008 -2.236584 1.29895 -1.767767 1.767767 
C -1.29895 2.236584 -0.663008 2.5 0 2.5 
z
" style="stroke: #2ecc71"/>
    </defs>
    <g clip-path="url(#p7a43b2fab3)">
     <use xlink:href="#m3697c8ae69" x="79.911947" y="31.954344" style="fill: #2ecc71; stroke: #2ecc71"/>
     <use xlink:href="#m3697c8ae69" x="139.155805" y="41.1671" style="fill: #2ecc71; stroke: #2ecc71"/>
     <use xlink:href="#m3697c8ae69" x="217.471924" y="39.764632" style="fill: #2ecc71; stroke: #2ecc71"/>
     <use xlink:href="#m3697c8ae69" x="276.715782" y="42.6444" style="fill: #2ecc71; stroke: #2ecc71"/>
     <use xlink:href="#m3697c8ae69" x="335.959639" y="52.534759" style="fill: #2ecc71; stroke: #2ecc71"/>
     <use xlink:href="#m3697c8ae69" x="370.615074" y="75.976341" style="fill: #2ecc71; stroke: #2ecc71"/>
     <use xlink:href="#m3697c8ae69" x="414.275759" y="102.322322" style="fill: #2ecc71; stroke: #2ecc71"/>
     <use xlink:href="#m3697c8ae69" x="448.931194" y="139.367822" style="fill: #2ecc71; stroke: #2ecc71"/>
     <use xlink:href="#m3697c8ae69" x="473.519617" y="187.972627" style="fill: #2ecc71; stroke: #2ecc71"/>
    </g>
   </g>
   <g id="line2d_49">
    <path d="M 79.911947 33.939352 
L 139.155805 36.654586 
L 217.471924 33.095464 
L 276.715782 33.637793 
L 335.959639 35.846801 
L 370.615074 37.481331 
L 414.275759 51.828668 
L 448.931194 45.979988 
L 473.519617 48.089325 
" clip-path="url(#p7a43b2fab3)" style="fill: none; stroke: #2980b9; stroke-width: 2; stroke-linecap: square"/>
    <defs>
     <path id="m525cb78cdc" d="M 0 2.5 
C 0.663008 2.5 1.29895 2.236584 1.767767 1.767767 
C 2.236584 1.29895 2.5 0.663008 2.5 0 
C 2.5 -0.663008 2.236584 -1.29895 1.767767 -1.767767 
C 1.29895 -2.236584 0.663008 -2.5 0 -2.5 
C -0.663008 -2.5 -1.29895 -2.236584 -1.767767 -1.767767 
C -2.236584 -1.29895 -2.5 -0.663008 -2.5 0 
C -2.5 0.663008 -2.236584 1.29895 -1.767767 1.767767 
C -1.29895 2.236584 -0.663008 2.5 0 2.5 
z
" style="stroke: #2980b9"/>
    </defs>
    <g clip-path="url(#p7a43b2fab3)">
     <use xlink:href="#m525cb78cdc" x="79.911947" y="33.939352" style="fill: #2980b9; stroke: #2980b9"/>
     <use xlink:href="#m525cb78cdc" x="139.155805" y="36.654586" style="fill: #2980b9; stroke: #2980b9"/>
     <use xlink:href="#m525cb78cdc" x="217.471924" y="33.095464" style="fill: #2980b9; stroke: #2980b9"/>
     <use xlink:href="#m525cb78cdc" x="276.715782" y="33.637793" style="fill: #2980b9; stroke: #2980b9"/>
     <use xlink:href="#m525cb78cdc" x="335.959639" y="35.846801" style="fill: #2980b9; stroke: #2980b9"/>
     <use xlink:href="#m525cb78cdc" x="370.615074" y="37.481331" style="fill: #2980b9; stroke: #2980b9"/>
     <use xlink:href="#m525cb78cdc" x="414.275759" y="51.828668" style="fill: #2980b9; stroke: #2980b9"/>
     <use xlink:href="#m525cb78cdc" x="448.931194" y="45.979988" style="fill: #2980b9; stroke: #2980b9"/>
     <use xlink:href="#m525cb78cdc" x="473.519617" y="48.089325" style="fill: #2980b9; stroke: #2980b9"/>
    </g>
   </g>
   <g id="line2d_50">
    <path d="M 79.911947 33.939352 
L 139.155805 33.467336 
L 217.471924 34.732783 
L 276.715782 40.380928 
L 335.959639 37.050589 
L 370.615074 33.928415 
L 414.275759 38.494228 
L 448.931194 43.243306 
L 473.519617 57.589809 
" clip-path="url(#p7a43b2fab3)" style="fill: none; stroke: #8e44ad; stroke-width: 2; stroke-linecap: square"/>
    <defs>
     <path id="m5b6780efb7" d="M 0 2.5 
C 0.663008 2.5 1.29895 2.236584 1.767767 1.767767 
C 2.236584 1.29895 2.5 0.663008 2.5 0 
C 2.5 -0.663008 2.236584 -1.29895 1.767767 -1.767767 
C 1.29895 -2.236584 0.663008 -2.5 0 -2.5 
C -0.663008 -2.5 -1.29895 -2.236584 -1.767767 -1.767767 
C -2.236584 -1.29895 -2.5 -0.663008 -2.5 0 
C -2.5 0.663008 -2.236584 1.29895 -1.767767 1.767767 
C -1.29895 2.236584 -0.663008 2.5 0 2.5 
z
" style="stroke: #8e44ad"/>
    </defs>
    <g clip-path="url(#p7a43b2fab3)">
     <use xlink:href="#m5b6780efb7" x="79.911947" y="33.939352" style="fill: #8e44ad; stroke: #8e44ad"/>
     <use xlink:href="#m5b6780efb7" x="139.155805" y="33.467336" style="fill: #8e44ad; stroke: #8e44ad"/>
     <use xlink:href="#m5b6780efb7" x="217.471924" y="34.732783" style="fill: #8e44ad; stroke: #8e44ad"/>
     <use xlink:href="#m5b6780efb7" x="276.715782" y="40.380928" style="fill: #8e44ad; stroke: #8e44ad"/>
     <use xlink:href="#m5b6780efb7" x="335.959639" y="37.050589" style="fill: #8e44ad; stroke: #8e44ad"/>
     <use xlink:href="#m5b6780efb7" x="370.615074" y="33.928415" style="fill: #8e44ad; stroke: #8e44ad"/>
     <use xlink:href="#m5b6780efb7" x="414.275759" y="38.494228" style="fill: #8e44ad; stroke: #8e44ad"/>
     <use xlink:href="#m5b6780efb7" x="448.931194" y="43.243306" style="fill: #8e44ad; stroke: #8e44ad"/>
     <use xlink:href="#m5b6780efb7" x="473.519617" y="57.589809" style="fill: #8e44ad; stroke: #8e44ad"/>
    </g>
   </g>
   <g id="line2d_51">
    <path d="M 60.231564 57.313487 
L 493.2 57.313487 
" clip-path="url(#p7a43b2fab3)" style="fill: none; stroke-dasharray: 3.7,1.6; stroke-dashoffset: 0; stroke: #333333"/>
   </g>
   <g id="patch_3">
    <path d="M 60.231564 266.24103 
L 60.231564 26.02875 
" style="fill: none; stroke: #000000; stroke-width: 0.8; stroke-linejoin: miter; stroke-linecap: square"/>
   </g>
   <g id="patch_4">
    <path d="M 60.231564 266.24103 
L 493.2 266.24103 
" style="fill: none; stroke: #000000; stroke-width: 0.8; stroke-linejoin: miter; stroke-linecap: square"/>
   </g>
   <g id="text_19">
    <!-- QBER Detectability vs Number of Observed Sessions -->
    <g transform="translate(115.277344 20.02875) scale(0.12 -0.12)">
     <defs>
      <path id="DejaVuSerif-51" d="M 2700 -91 
Q 1628 -91 993 567 
Q 359 1225 359 2328 
Q 359 2894 529 3339 
Q 700 3784 1050 4134 
Q 1356 4441 1750 4595 
Q 2144 4750 2625 4750 
Q 3641 4750 4266 4084 
Q 4891 3419 4891 2328 
Q 4891 1403 4422 773 
Q 3953 144 3128 -38 
Q 3297 -247 3539 -347 
Q 3781 -447 4122 -447 
L 4219 -447 
L 4219 -1025 
Q 3691 -1000 3314 -767 
Q 2938 -534 2700 -91 
z
M 2625 244 
Q 3391 244 3781 770 
Q 4172 1297 4172 2328 
Q 4172 3363 3781 3889 
Q 3391 4416 2625 4416 
Q 1856 4416 1465 3889 
Q 1075 3363 1075 2328 
Q 1075 1297 1465 770 
Q 1856 244 2625 244 
z
" transform="scale(0.015625)"/>
      <path id="DejaVuSerif-42" d="M 1581 331 
L 2516 331 
Q 3078 331 3337 575 
Q 3597 819 3597 1350 
Q 3597 1878 3339 2120 
Q 3081 2363 2516 2363 
L 1581 2363 
L 1581 331 
z
M 1581 2694 
L 2375 2694 
Q 2888 2694 3123 2891 
Q 3359 3088 3359 3513 
Q 3359 3941 3123 4136 
Q 2888 4331 2375 4331 
L 1581 4331 
L 1581 2694 
z
M 353 0 
L 353 331 
L 947 331 
L 947 4331 
L 353 4331 
L 353 4666 
L 2656 4666 
Q 3363 4666 3720 4377 
Q 4078 4088 4078 3513 
Q 4078 3097 3829 2850 
Q 3581 2603 3103 2547 
Q 3697 2472 4005 2167 
Q 4313 1863 4313 1350 
Q 4313 656 3875 328 
Q 3438 0 2509 0 
L 353 0 
z
" transform="scale(0.015625)"/>
      <path id="DejaVuSerif-45" d="M 353 0 
L 353 331 
L 947 331 
L 947 4331 
L 353 4331 
L 353 4666 
L 4109 4666 
L 4109 3628 
L 3725 3628 
L 3725 4281 
L 1581 4281 
L 1581 2719 
L 3109 2719 
L 3109 3303 
L 3494 3303 
L 3494 1753 
L 3109 1753 
L 3109 2338 
L 1581 2338 
L 1581 384 
L 3775 384 
L 3775 1038 
L 4159 1038 
L 4159 0 
L 353 0 
z
" transform="scale(0.015625)"/>
      <path id="DejaVuSerif-52" d="M 3066 2316 
Q 3284 2256 3442 2114 
Q 3600 1972 3725 1716 
L 4403 331 
L 4972 331 
L 4972 0 
L 3872 0 
L 3144 1484 
Q 2934 1916 2759 2042 
Q 2584 2169 2278 2169 
L 1581 2169 
L 1581 331 
L 2241 331 
L 2241 0 
L 353 0 
L 353 331 
L 947 331 
L 947 4331 
L 353 4331 
L 353 4666 
L 2719 4666 
Q 3400 4666 3770 4341 
Q 4141 4016 4141 3419 
Q 4141 2938 3870 2661 
Q 3600 2384 3066 2316 
z
M 1581 2503 
L 2503 2503 
Q 2975 2503 3200 2726 
Q 3425 2950 3425 3419 
Q 3425 3888 3200 4109 
Q 2975 4331 2503 4331 
L 1581 4331 
L 1581 2503 
z
" transform="scale(0.015625)"/>
      <path id="DejaVuSerif-44" d="M 1581 331 
L 2163 331 
Q 3072 331 3558 850 
Q 4044 1369 4044 2338 
Q 4044 3306 3559 3818 
Q 3075 4331 2163 4331 
L 1581 4331 
L 1581 331 
z
M 353 0 
L 353 331 
L 947 331 
L 947 4331 
L 353 4331 
L 353 4666 
L 2209 4666 
Q 3416 4666 4089 4050 
Q 4763 3434 4763 2338 
Q 4763 1238 4088 619 
Q 3413 0 2209 0 
L 353 0 
z
" transform="scale(0.015625)"/>
      <path id="DejaVuSerif-63" d="M 3291 997 
Q 3169 466 2822 187 
Q 2475 -91 1925 -91 
Q 1200 -91 759 389 
Q 319 869 319 1663 
Q 319 2459 759 2936 
Q 1200 3413 1925 3413 
Q 2241 3413 2553 3339 
Q 2866 3266 3181 3116 
L 3181 2266 
L 2847 2266 
Q 2781 2703 2561 2903 
Q 2341 3103 1931 3103 
Q 1466 3103 1228 2742 
Q 991 2381 991 1663 
Q 991 944 1227 581 
Q 1463 219 1931 219 
Q 2303 219 2525 412 
Q 2747 606 2828 997 
L 3291 997 
z
" transform="scale(0.015625)"/>
      <path id="DejaVuSerif-79" d="M 1381 -609 
L 1600 -56 
L 359 2988 
L -19 2988 
L -19 3322 
L 1509 3322 
L 1509 2988 
L 978 2988 
L 1913 703 
L 2847 2988 
L 2350 2988 
L 2350 3322 
L 3597 3322 
L 3597 2988 
L 3225 2988 
L 1703 -750 
Q 1547 -1138 1356 -1280 
Q 1166 -1422 819 -1422 
Q 672 -1422 517 -1397 
Q 363 -1372 206 -1325 
L 206 -691 
L 500 -691 
Q 519 -903 608 -995 
Q 697 -1088 884 -1088 
Q 1056 -1088 1161 -992 
Q 1266 -897 1381 -609 
z
" transform="scale(0.015625)"/>
     </defs>
     <use xlink:href="#DejaVuSerif-51"/>
     <use xlink:href="#DejaVuSerif-42" transform="translate(81.982422 0)"/>
     <use xlink:href="#DejaVuSerif-45" transform="translate(155.46875 0)"/>
     <use xlink:href="#DejaVuSerif-52" transform="translate(228.466797 0)"/>
     <use xlink:href="#DejaVuSerif-20" transform="translate(303.759766 0)"/>
     <use xlink:href="#DejaVuSerif-44" transform="translate(335.546875 0)"/>
     <use xlink:href="#DejaVuSerif-65" transform="translate(415.722656 0)"/>
     <use xlink:href="#DejaVuSerif-74" transform="translate(474.902344 0)"/>
     <use xlink:href="#DejaVuSerif-65" transform="translate(515.087891 0)"/>
     <use xlink:href="#DejaVuSerif-63" transform="translate(574.267578 0)"/>
     <use xlink:href="#DejaVuSerif-74" transform="translate(630.273438 0)"/>
     <use xlink:href="#DejaVuSerif-61" transform="translate(670.458984 0)"/>
     <use xlink:href="#DejaVuSerif-62" transform="translate(730.078125 0)"/>
     <use xlink:href="#DejaVuSerif-69" transform="translate(794.091797 0)"/>
     <use xlink:href="#DejaVuSerif-6c" transform="translate(826.074219 0)"/>
     <use xlink:href="#DejaVuSerif-69" transform="translate(858.056641 0)"/>
     <use xlink:href="#DejaVuSerif-74" transform="translate(890.039062 0)"/>
     <use xlink:href="#DejaVuSerif-79" transform="translate(930.224609 0)"/>
     <use xlink:href="#DejaVuSerif-20" transform="translate(986.71875 0)"/>
     <use xlink:href="#DejaVuSerif-76" transform="translate(1018.505859 0)"/>
     <use xlink:href="#DejaVuSerif-73" transform="translate(1075 0)"/>
     <use xlink:href="#DejaVuSerif-20" transform="translate(1126.318359 0)"/>
     <use xlink:href="#DejaVuSerif-4e" transform="translate(1158.105469 0)"/>
     <use xlink:href="#DejaVuSerif-75" transform="translate(1245.605469 0)"/>
     <use xlink:href="#DejaVuSerif-6d" transform="translate(1310.009766 0)"/>
     <use xlink:href="#DejaVuSerif-62" transform="translate(1404.833984 0)"/>
     <use xlink:href="#DejaVuSerif-65" transform="translate(1468.847656 0)"/>
     <use xlink:href="#DejaVuSerif-72" transform="translate(1528.027344 0)"/>
     <use xlink:href="#DejaVuSerif-20" transform="translate(1575.830078 0)"/>
     <use xlink:href="#DejaVuSerif-6f" transform="translate(1607.617188 0)"/>
     <use xlink:href="#DejaVuSerif-66" transform="translate(1667.822266 0)"/>
     <use xlink:href="#DejaVuSerif-20" transform="translate(1704.833984 0)"/>
     <use xlink:href="#DejaVuSerif-4f" transform="translate(1736.621094 0)"/>
     <use xlink:href="#DejaVuSerif-62" transform="translate(1818.603516 0)"/>
     <use xlink:href="#DejaVuSerif-73" transform="translate(1882.617188 0)"/>
     <use xlink:href="#DejaVuSerif-65" transform="translate(1933.935547 0)"/>
     <use xlink:href="#DejaVuSerif-72" transform="translate(1993.115234 0)"/>
     <use xlink:href="#DejaVuSerif-76" transform="translate(2040.917969 0)"/>
     <use xlink:href="#DejaVuSerif-65" transform="translate(2097.412109 0)"/>
     <use xlink:href="#DejaVuSerif-64" transform="translate(2156.591797 0)"/>
     <use xlink:href="#DejaVuSerif-20" transform="translate(2220.605469 0)"/>
     <use xlink:href="#DejaVuSerif-53" transform="translate(2252.392578 0)"/>
     <use xlink:href="#DejaVuSerif-65" transform="translate(2320.898438 0)"/>
     <use xlink:href="#DejaVuSerif-73" transform="translate(2380.078125 0)"/>
     <use xlink:href="#DejaVuSerif-73" transform="translate(2431.396484 0)"/>
     <use xlink:href="#DejaVuSerif-69" transform="translate(2482.714844 0)"/>
     <use xlink:href="#DejaVuSerif-6f" transform="translate(2514.697266 0)"/>
     <use xlink:href="#DejaVuSerif-6e" transform="translate(2574.902344 0)"/>
     <use xlink:href="#DejaVuSerif-73" transform="translate(2639.306641 0)"/>
    </g>
   </g>
   <g id="legend_1">
    <g id="patch_5">
     <path d="M 66.531564 261.74103 
L 194.33297 261.74103 
Q 196.13297 261.74103 196.13297 259.94103 
L 196.13297 221.210093 
Q 196.13297 219.410093 194.33297 219.410093 
L 66.531564 219.410093 
Q 64.731564 219.410093 64.731564 221.210093 
L 64.731564 259.94103 
Q 64.731564 261.74103 66.531564 261.74103 
z
" style="fill: #ffffff; opacity: 0.8; stroke: #cccccc; stroke-linejoin: miter"/>
    </g>
    <g id="line2d_52">
     <path d="M 68.331564 226.698687 
L 77.331564 226.698687 
L 86.331564 226.698687 
" style="fill: none; stroke: #e74c3c; stroke-width: 2; stroke-linecap: square"/>
     <g>
      <use xlink:href="#m7e51c08500" x="77.331564" y="226.698687" style="fill: #e74c3c; stroke: #e74c3c"/>
     </g>
    </g>
    <g id="text_20">
     <!-- k=6 -->
     <g transform="translate(93.531564 229.848687) scale(0.09 -0.09)">
      <defs>
       <path id="DejaVuSerif-6b" d="M 1831 0 
L 219 0 
L 219 331 
L 738 331 
L 738 4531 
L 184 4531 
L 184 4863 
L 1313 4863 
L 1313 1697 
L 2713 2988 
L 2234 2988 
L 2234 3322 
L 3738 3322 
L 3738 2988 
L 3169 2988 
L 2181 2075 
L 3444 331 
L 3922 331 
L 3922 0 
L 2284 0 
L 2284 331 
L 2759 331 
L 1766 1697 
L 1313 1275 
L 1313 331 
L 1831 331 
L 1831 0 
z
" transform="scale(0.015625)"/>
       <path id="DejaVuSerif-3d" d="M 678 2894 
L 4684 2894 
L 4684 2394 
L 678 2394 
L 678 2894 
z
M 678 1619 
L 4684 1619 
L 4684 1119 
L 678 1119 
L 678 1619 
z
" transform="scale(0.015625)"/>
      </defs>
      <use xlink:href="#DejaVuSerif-6b"/>
      <use xlink:href="#DejaVuSerif-3d" transform="translate(60.595703 0)"/>
      <use xlink:href="#DejaVuSerif-36" transform="translate(144.384766 0)"/>
     </g>
    </g>
    <g id="line2d_53">
     <path d="M 68.331564 239.908999 
L 77.331564 239.908999 
L 86.331564 239.908999 
" style="fill: none; stroke: #e67e22; stroke-width: 2; stroke-linecap: square"/>
     <g>
      <use xlink:href="#m6fdeb5f151" x="77.331564" y="239.908999" style="fill: #e67e22; stroke: #e67e22"/>
     </g>
    </g>
    <g id="text_21">
     <!-- k=7 -->
     <g transform="translate(93.531564 243.058999) scale(0.09 -0.09)">
      <use xlink:href="#DejaVuSerif-6b"/>
      <use xlink:href="#DejaVuSerif-3d" transform="translate(60.595703 0)"/>
      <use xlink:href="#DejaVuSerif-37" transform="translate(144.384766 0)"/>
     </g>
    </g>
    <g id="line2d_54">
     <path d="M 68.331564 253.119312 
L 77.331564 253.119312 
L 86.331564 253.119312 
" style="fill: none; stroke: #2ecc71; stroke-width: 2; stroke-linecap: square"/>
     <g>
      <use xlink:href="#m3697c8ae69" x="77.331564" y="253.119312" style="fill: #2ecc71; stroke: #2ecc71"/>
     </g>
    </g>
    <g id="text_22">
     <!-- k=8 -->
     <g transform="translate(93.531564 256.269312) scale(0.09 -0.09)">
      <use xlink:href="#DejaVuSerif-6b"/>
      <use xlink:href="#DejaVuSerif-3d" transform="translate(60.595703 0)"/>
      <use xlink:href="#DejaVuSerif-38" transform="translate(144.384766 0)"/>
     </g>
    </g>
    <g id="line2d_55">
     <path d="M 130.25297 226.698687 
L 139.25297 226.698687 
L 148.25297 226.698687 
" style="fill: none; stroke: #2980b9; stroke-width: 2; stroke-linecap: square"/>
     <g>
      <use xlink:href="#m525cb78cdc" x="139.25297" y="226.698687" style="fill: #2980b9; stroke: #2980b9"/>
     </g>
    </g>
    <g id="text_23">
     <!-- k=9 -->
     <g transform="translate(155.45297 229.848687) scale(0.09 -0.09)">
      <defs>
       <path id="DejaVuSerif-39" d="M 2994 2091 
Q 2784 1856 2512 1740 
Q 2241 1625 1900 1625 
Q 1206 1625 804 2044 
Q 403 2463 403 3188 
Q 403 3897 839 4323 
Q 1275 4750 2003 4750 
Q 2794 4750 3217 4161 
Q 3641 3572 3641 2478 
Q 3641 1253 3137 581 
Q 2634 -91 1722 -91 
Q 1475 -91 1203 -44 
Q 931 3 647 97 
L 647 872 
L 997 872 
Q 1038 556 1241 387 
Q 1444 219 1784 219 
Q 2391 219 2687 676 
Q 2984 1134 2994 2091 
z
M 1978 4441 
Q 1534 4441 1298 4117 
Q 1063 3794 1063 3188 
Q 1063 2581 1298 2256 
Q 1534 1931 1978 1931 
Q 2422 1931 2658 2245 
Q 2894 2559 2894 3150 
Q 2894 3772 2656 4106 
Q 2419 4441 1978 4441 
z
" transform="scale(0.015625)"/>
      </defs>
      <use xlink:href="#DejaVuSerif-6b"/>
      <use xlink:href="#DejaVuSerif-3d" transform="translate(60.595703 0)"/>
      <use xlink:href="#DejaVuSerif-39" transform="translate(144.384766 0)"/>
     </g>
    </g>
    <g id="line2d_56">
     <path d="M 130.25297 239.908999 
L 139.25297 239.908999 
L 148.25297 239.908999 
" style="fill: none; stroke: #8e44ad; stroke-width: 2; stroke-linecap: square"/>
     <g>
      <use xlink:href="#m5b6780efb7" x="139.25297" y="239.908999" style="fill: #8e44ad; stroke: #8e44ad"/>
     </g>
    </g>
    <g id="text_24">
     <!-- k=10 -->
     <g transform="translate(155.45297 243.058999) scale(0.09 -0.09)">
      <use xlink:href="#DejaVuSerif-6b"/>
      <use xlink:href="#DejaVuSerif-3d" transform="translate(60.595703 0)"/>
      <use xlink:href="#DejaVuSerif-31" transform="translate(144.384766 0)"/>
      <use xlink:href="#DejaVuSerif-30" transform="translate(208.007812 0)"/>
     </g>
    </g>
    <g id="line2d_57">
     <path d="M 130.25297 253.119312 
L 139.25297 253.119312 
L 148.25297 253.119312 
" style="fill: none; stroke-dasharray: 3.7,1.6; stroke-dashoffset: 0; stroke: #333333"/>
    </g>
    <g id="text_25">
     <!-- $\alpha = 0.05$ -->
     <g transform="translate(155.45297 256.269312) scale(0.09 -0.09)">
      <defs>
       <path id="DejaVuSans-Oblique-3b1" d="M 2619 1628 
L 2622 2350 
Q 2625 3088 2069 3091 
Q 1653 3094 1394 2747 
Q 1069 2319 959 1747 
Q 825 1059 994 731 
Q 1169 397 1547 397 
Q 1966 397 2319 1063 
L 2619 1628 
z
M 2166 3578 
Q 3141 3594 3128 2584 
Q 3128 2584 3616 3500 
L 4128 3500 
L 3119 1603 
L 3109 919 
Q 3109 766 3194 638 
Q 3291 488 3391 488 
L 3669 488 
L 3575 0 
L 3228 0 
Q 2934 0 2722 263 
Q 2622 394 2619 669 
Q 2416 334 2066 50 
Q 1900 -81 1453 -78 
Q 722 -72 456 397 
Q 184 884 353 1747 
Q 534 2675 1009 3097 
Q 1544 3569 2166 3578 
z
" transform="scale(0.015625)"/>
       <path id="DejaVuSans-3d" d="M 678 2906 
L 4684 2906 
L 4684 2381 
L 678 2381 
L 678 2906 
z
M 678 1631 
L 4684 1631 
L 4684 1100 
L 678 1100 
L 678 1631 
z
" transform="scale(0.015625)"/>
       <path id="DejaVuSans-30" d="M 2034 4250 
Q 1547 4250 1301 3770 
Q 1056 3291 1056 2328 
Q 1056 1369 1301 889 
Q 1547 409 2034 409 
Q 2525 409 2770 889 
Q 3016 1369 3016 2328 
Q 3016 3291 2770 3770 
Q 2525 4250 2034 4250 
z
M 2034 4750 
Q 2819 4750 3233 4129 
Q 3647 3509 3647 2328 
Q 3647 1150 3233 529 
Q 2819 -91 2034 -91 
Q 1250 -91 836 529 
Q 422 1150 422 2328 
Q 422 3509 836 4129 
Q 1250 4750 2034 4750 
z
" transform="scale(0.015625)"/>
       <path id="DejaVuSans-2e" d="M 684 794 
L 1344 794 
L 1344 0 
L 684 0 
L 684 794 
z
" transform="scale(0.015625)"/>
       <path id="DejaVuSans-35" d="M 691 4666 
L 3169 4666 
L 3169 4134 
L 1269 4134 
L 1269 2991 
Q 1406 3038 1543 3061 
Q 1681 3084 1819 3084 
Q 2600 3084 3056 2656 
Q 3513 2228 3513 1497 
Q 3513 744 3044 326 
Q 2575 -91 1722 -91 
Q 1428 -91 1123 -41 
Q 819 9 494 109 
L 494 744 
Q 775 591 1075 516 
Q 1375 441 1709 441 
Q 2250 441 2565 725 
Q 2881 1009 2881 1497 
Q 2881 1984 2565 2268 
Q 2250 2553 1709 2553 
Q 1456 2553 1204 2497 
Q 953 2441 691 2322 
L 691 4666 
z
" transform="scale(0.015625)"/>
      </defs>
      <use xlink:href="#DejaVuSans-Oblique-3b1" transform="translate(0 0.78125)"/>
      <use xlink:href="#DejaVuSans-3d" transform="translate(85.400391 0.78125)"/>
      <use xlink:href="#DejaVuSans-30" transform="translate(188.671875 0.78125)"/>
      <use xlink:href="#DejaVuSans-2e" transform="translate(252.294922 0.78125)"/>
      <use xlink:href="#DejaVuSans-30" transform="translate(284.082031 0.78125)"/>
      <use xlink:href="#DejaVuSans-35" transform="translate(347.705078 0.78125)"/>
     </g>
    </g>
   </g>
  </g>
 </g>
 <defs>
  <clipPath id="p7a43b2fab3">
   <rect x="60.231564" y="26.02875" width="432.968436" height="240.21228"/>
  </clipPath>
 </defs>
</svg>
